# Blender v2.75 (sub 0) OBJ File: 'dwarf_rigging_066_blender2_49_03_1.blend'
# www.blender.org
mtllib dwarf_rigging_066_blender2_49_03_1.mtl
o body.001_Cube.000
v -1.003253 1.688311 0.143465
v -1.132519 1.715611 0.048860
v -0.873987 1.715611 0.048860
v -1.114676 1.707573 0.145104
v -0.891830 1.707573 0.145104
v -1.003253 1.406173 0.278265
v -1.003253 1.489140 0.130938
v -1.003253 1.577434 0.292167
v -1.003253 1.585089 0.036545
v -1.003253 1.717448 0.070744
v -1.003253 1.728117 0.177047
v -1.003253 1.366135 0.306606
v -1.059988 1.463007 0.305488
v -0.946518 1.463007 0.305488
v -1.125453 1.518873 0.202099
v -0.881052 1.518873 0.202099
v -1.090642 1.728824 0.113241
v -0.915864 1.728824 0.113241
v -1.109437 1.732558 0.060685
v -0.897068 1.732558 0.060685
v -1.036567 1.386089 0.323110
v -0.969938 1.386089 0.323110
v -1.048868 1.372442 0.307755
v -0.957637 1.372442 0.307755
v -1.003253 1.662418 0.009238
v -1.051377 1.698361 0.191323
v -0.955128 1.698361 0.191323
v -1.145829 1.710500 0.099694
v -0.860676 1.710500 0.099694
v -1.003253 1.627453 0.014769
v -1.003253 1.697707 0.068850
v -1.003253 1.671261 0.153586
v -1.003253 1.714301 0.191759
v -1.117945 1.734539 0.058356
v -0.888561 1.734539 0.058356
v -1.118731 1.685998 0.165768
v -0.887775 1.685998 0.165768
v -1.104306 1.720281 0.123343
v -0.902200 1.720281 0.123343
v -1.003253 1.536020 0.073190
v -1.003253 1.625926 0.255160
v -1.003253 1.345453 0.307675
v -1.094863 1.437489 0.251117
v -0.911642 1.437489 0.251117
v -1.003253 1.452246 0.318866
v -1.090910 1.560608 0.255381
v -0.915596 1.560608 0.255381
v -1.152158 1.630149 0.083036
v -0.854347 1.630149 0.083036
v -1.003253 1.662457 0.219150
v -1.115426 1.653097 0.185605
v -0.891080 1.653097 0.185605
v -1.056899 1.726600 0.145769
v -0.949606 1.726600 0.145769
v -1.003253 1.337403 0.300485
v -1.090734 1.454028 0.278866
v -0.915772 1.454028 0.278866
v -1.062120 1.396274 0.282690
v -0.944386 1.396274 0.282690
v -1.104299 1.483324 0.220029
v -0.902207 1.483324 0.220029
v -1.074270 1.509561 0.280436
v -0.932236 1.509561 0.280436
v -1.124396 1.537940 0.224485
v -0.882109 1.537940 0.224485
v -1.154652 1.642347 0.150713
v -0.851853 1.642347 0.150713
v -1.148956 1.684814 0.054731
v -0.857549 1.684814 0.054731
v -1.056725 1.679920 0.183884
v -0.949781 1.679920 0.183884
v -1.049861 1.711048 0.182883
v -0.956644 1.711048 0.182883
v -1.136577 1.730984 0.086453
v -0.869929 1.730984 0.086453
v -1.152408 1.680454 0.117607
v -0.854097 1.680454 0.117607
v -1.003253 1.358260 0.284674
v -1.003253 1.444592 0.242856
v -1.003253 1.511954 0.310819
v -1.003253 1.404871 0.314066
v -1.050414 1.417236 0.327083
v -0.956092 1.417236 0.327083
v -1.133892 1.578075 0.147506
v -0.872613 1.578075 0.147506
v -1.103071 1.611096 0.221534
v -0.903435 1.611096 0.221534
v -1.003253 1.724378 0.112210
v -1.109440 1.738904 0.080607
v -0.897065 1.738904 0.080607
v -1.043136 1.369222 0.316422
v -0.963369 1.369222 0.316422
v -1.100330 1.501193 0.251496
v -0.906175 1.501193 0.251496
v -1.067443 1.412090 0.297004
v -0.939063 1.412090 0.297004
v -1.144085 1.593849 0.191031
v -0.862421 1.593849 0.191031
vt 0.809904 0.958871
vt 0.801575 0.954430
vt 0.818801 0.930411
vt 0.818506 0.936454
vt 0.944768 0.930569
vt 0.961906 0.954431
vt 0.953577 0.958872
vt 0.945115 0.936561
vt 0.787557 0.943911
vt 0.813838 0.922541
vt 0.949744 0.922696
vt 0.975924 0.943911
vt 0.776207 0.928894
vt 0.808676 0.911422
vt 0.954898 0.911603
vt 0.987274 0.928893
vt 0.767537 0.904460
vt 0.803568 0.892818
vt 0.960035 0.893035
vt 0.995943 0.904459
vt 0.840389 0.910463
vt 0.840982 0.898796
vt 0.863216 0.897595
vt 0.863782 0.911605
vt 0.900690 0.897846
vt 0.922718 0.899162
vt 0.923359 0.910850
vt 0.899856 0.912335
vt 0.841644 0.885339
vt 0.921975 0.885737
vt 0.882035 0.883493
vt 0.882028 0.902987
vt 0.881846 0.911472
vt 0.841897 0.934896
vt 0.841667 0.923466
vt 0.863529 0.922605
vt 0.858168 0.941081
vt 0.900224 0.923088
vt 0.922103 0.923809
vt 0.921931 0.935167
vt 0.905695 0.941364
vt 0.881836 0.931454
vt 0.881740 0.947973
vt 0.825881 0.924612
vt 0.823064 0.914462
vt 0.937825 0.924762
vt 0.940548 0.914630
vt 0.828337 0.938595
vt 0.935376 0.938723
vt 0.818925 0.902622
vt 0.818644 0.887734
vt 0.944597 0.902858
vt 0.944961 0.888019
vt 0.826643 0.773162
vt 0.860477 0.760884
vt 0.839294 0.788338
vt 0.823608 0.808163
vt 0.924274 0.788340
vt 0.903004 0.760882
vt 0.936840 0.773161
vt 0.939948 0.808251
vt 0.881739 0.762455
vt 0.855610 0.780840
vt 0.907922 0.780847
vt 0.776992 0.831697
vt 0.798267 0.796618
vt 0.811583 0.827958
vt 0.805137 0.847485
vt 0.951942 0.828091
vt 0.965215 0.796619
vt 0.986488 0.831699
vt 0.958445 0.847655
vt 0.881839 0.816559
vt 0.881922 0.834537
vt 0.847925 0.835665
vt 0.854026 0.820009
vt 0.915824 0.835800
vt 0.909617 0.820117
vt 0.881895 0.852324
vt 0.844696 0.852501
vt 0.919019 0.852678
vt 0.881781 0.780130
vt 0.881820 0.798986
vt 0.860429 0.804189
vt 0.866001 0.791632
vt 0.903219 0.804220
vt 0.897592 0.791644
vt 0.767486 0.868416
vt 0.801514 0.870734
vt 0.962018 0.870920
vt 0.995992 0.868416
vt 0.881966 0.868630
vt 0.843838 0.869513
vt 0.919850 0.869802
vt 0.834963 0.967197
vt 0.928517 0.967199
vt 0.861990 0.783405
vt 0.881756 0.768818
vt 0.901562 0.783363
vt 0.826148 0.833950
vt 0.833023 0.815830
vt 0.937396 0.834101
vt 0.930511 0.815853
vt 0.820095 0.850847
vt 0.943459 0.851033
vt 0.845598 0.799019
vt 0.917988 0.799024
vt 0.819746 0.870102
vt 0.943705 0.870406
vn 0.000000 0.681700 -0.731600
vn 0.000000 0.537000 -0.843500
vn -0.248100 0.861400 -0.443100
vn 0.068900 0.730500 -0.679400
vn 0.278800 0.737000 -0.615600
vn -0.171200 0.515900 -0.839400
vn 0.000000 0.263700 -0.964600
vn -0.574100 0.444500 -0.687600
vn 0.574100 0.444500 -0.687600
vn 0.000000 -0.302700 -0.953100
vn -0.802600 -0.023700 -0.596000
vn 0.802600 -0.023700 -0.596000
vn 0.000000 -0.616900 -0.787000
vn -0.805100 -0.371300 -0.462400
vn 0.805100 -0.371300 -0.462400
vn -0.517500 0.627600 0.581600
vn -0.540700 0.449500 0.711000
vn 0.024600 0.563900 0.825400
vn 0.054900 0.139500 0.988700
vn -0.024600 0.563900 0.825400
vn 0.540700 0.449500 0.711000
vn 0.517500 0.627600 0.581600
vn -0.054900 0.139500 0.988700
vn -0.487000 0.516000 0.704600
vn 0.487000 0.516000 0.704600
vn 0.000000 0.768500 0.639900
vn 0.000000 0.442100 0.896900
vn 0.000000 -0.356800 0.934100
vn -0.250100 0.879000 0.405900
vn -0.334300 0.827500 0.451100
vn -0.225300 0.587900 0.776900
vn -0.134000 0.955200 0.263700
vn 0.225300 0.587900 0.776900
vn 0.334300 0.827500 0.451100
vn 0.250100 0.879000 0.405900
vn 0.134000 0.955200 0.263700
vn 0.000000 0.156300 0.987700
vn 0.000000 0.933900 0.357600
vn -0.596200 0.800300 0.063100
vn -0.810400 0.560400 0.170700
vn 0.658900 0.746000 0.096400
vn 0.810400 0.560400 0.170700
vn -0.052600 0.998100 0.031100
vn -0.000300 0.995200 0.097200
vn -0.928400 0.299700 0.219700
vn -0.945200 0.107000 0.308400
vn 0.928400 0.299700 0.219700
vn 0.945200 0.107000 0.308400
vn 0.000000 -0.482100 -0.876100
vn 0.000000 -0.644000 -0.765000
vn -0.668200 -0.589600 -0.453600
vn -0.723800 -0.574600 -0.381900
vn 0.668200 -0.589600 -0.453600
vn 0.723800 -0.574600 -0.381900
vn 0.000000 -0.988200 -0.153000
vn -0.775700 -0.629700 -0.042100
vn 0.775700 -0.629700 -0.042100
vn 0.000000 -0.806800 -0.590900
vn 0.000000 -0.729500 -0.684000
vn -0.728000 -0.650500 -0.216600
vn -0.814400 -0.558900 -0.156300
vn 0.728000 -0.650500 -0.216600
vn 0.814400 -0.558900 -0.156300
vn 0.000000 0.214500 0.976700
vn 0.000000 0.276100 0.961100
vn -0.556300 0.208100 0.804500
vn -0.486800 0.165900 0.857600
vn 0.556300 0.208100 0.804500
vn 0.486800 0.165900 0.857600
vn 0.000000 0.425700 0.904800
vn -0.564200 0.286100 0.774500
vn 0.564200 0.286100 0.774500
vn 0.000000 -0.158200 0.987400
vn 0.000000 0.019900 0.999800
vn -0.366100 -0.026400 0.930200
vn -0.129900 -0.202600 0.970600
vn 0.366100 -0.026400 0.930200
vn 0.129900 -0.202600 0.970600
vn 0.000000 -0.750800 -0.660500
vn -0.795500 -0.511600 -0.324800
vn 0.795500 -0.511600 -0.324800
vn 0.000000 0.596900 0.802300
vn -0.515100 0.448400 0.730500
vn 0.515100 0.448400 0.730500
vn 0.000000 0.997900 -0.064400
vn -0.431600 -0.528900 0.730800
vn 0.000000 -0.702100 0.712000
vn 0.431600 -0.528900 0.730800
vn -0.863600 -0.038600 0.502600
vn -0.878800 -0.068300 0.472200
vn 0.863600 -0.038600 0.502600
vn 0.878800 -0.068300 0.472200
vn -0.893900 -0.083300 0.440300
vn 0.893900 -0.083300 0.440300
vn -0.848200 -0.250900 0.466500
vn 0.848200 -0.250900 0.466500
vn -0.924300 0.036000 0.379800
vn 0.924300 0.036000 0.379800
usemtl body_material
s 1
f 10/1/1 31/2/2 34/3/3 19/4/4
f 35/5/5 31/6/2 10/7/1 20/8/6
f 25/9/7 2/10/8 34/3/3 31/2/2
f 35/5/5 3/11/9 25/12/7 31/6/2
f 25/9/7 30/13/10 68/14/11 2/10/8
f 69/15/12 30/16/10 25/12/7 3/11/9
f 9/17/13 48/18/14 68/14/11 30/13/10
f 69/15/12 49/19/15 9/20/13 30/16/10
f 4/21/16 36/22/17 70/23/18 26/24/19
f 71/25/20 37/26/21 5/27/22 27/28/23
f 51/29/24 70/23/18 36/22/17
f 71/25/20 52/30/25 37/26/21
f 50/31/26 32/32/27 70/23/18 51/29/24
f 71/25/20 32/32/27 50/31/26 52/30/25
f 1/33/28 26/24/19 70/23/18 32/32/27
f 71/25/20 27/28/23 1/33/28 32/32/27
f 17/34/29 38/35/30 72/36/31 53/37/32
f 73/38/33 39/39/34 18/40/35 54/41/36
f 4/21/16 26/24/19 72/36/31 38/35/30
f 73/38/33 27/28/23 5/27/22 39/39/34
f 1/33/28 33/42/37 72/36/31 26/24/19
f 73/38/33 33/42/37 1/33/28 27/28/23
f 11/43/38 53/37/32 72/36/31 33/42/37
f 73/38/33 54/41/36 11/43/38 33/42/37
f 4/21/16 38/35/30 74/44/39 28/45/40
f 75/46/41 39/39/34 5/27/22 29/47/42
f 17/34/29 89/48/43 74/44/39 38/35/30
f 75/46/41 90/49/44 18/40/35 39/39/34
f 19/4/4 34/3/3 74/44/39 89/48/43
f 2/10/8 28/45/40 74/44/39 34/3/3
f 75/46/41 29/47/42 3/11/9 35/5/5
f 51/29/24 36/22/17 76/50/45 66/51/46
f 77/52/47 37/26/21 52/30/25 67/53/48
f 4/21/16 28/45/40 76/50/45 36/22/17
f 77/52/47 29/47/42 5/27/22 37/26/21
f 2/10/8 68/14/11 76/50/45 28/45/40
f 77/52/47 69/15/12 3/11/9 29/47/42
f 48/18/14 66/51/46 76/50/45 68/14/11
f 77/52/47 67/53/48 49/19/15 69/15/12
f 6/54/49 78/55/50 58/56/51 43/57/52
f 59/58/53 78/59/50 6/60/49 44/61/54
f 55/62/55 23/63/56 58/56/51 78/55/50
f 59/58/53 24/64/57 55/62/55 78/59/50
f 7/65/58 79/66/59 60/67/60 15/68/61
f 61/69/62 79/70/59 7/71/58 16/72/63
f 6/54/49 43/57/52 60/67/60 79/66/59
f 61/69/62 44/61/54 6/60/49 79/70/59
f 45/73/64 80/74/65 62/75/66 13/76/67
f 63/77/68 80/74/65 45/73/64 14/78/69
f 8/79/70 46/80/71 62/75/66 80/74/65
f 63/77/68 47/81/72 8/79/70 80/74/65
f 12/82/73 81/83/74 82/84/75 21/85/76
f 83/86/77 81/83/74 12/82/73 22/87/78
f 45/73/64 13/76/67 82/84/75 81/83/74
f 83/86/77 14/78/69 45/73/64 81/83/74
f 9/17/13 40/88/79 84/89/80 48/18/14
f 85/90/81 40/91/79 9/20/13 49/19/15
f 7/65/58 15/68/61 84/89/80 40/88/79
f 85/90/81 16/72/63 7/71/58 40/91/79
f 8/79/70 41/92/82 86/93/83 46/80/71
f 87/94/84 41/92/82 8/79/70 47/81/72
f 50/31/26 51/29/24 86/93/83 41/92/82
f 87/94/84 52/30/25 50/31/26 41/92/82
f 11/43/38 88/95/85 89/48/43 53/37/32
f 90/49/44 88/96/85 11/43/38 54/41/36
f 10/1/1 19/4/4 89/48/43 88/95/85
f 90/49/44 20/8/6 10/7/1 88/96/85
f 12/82/73 21/85/76 91/97/86 42/98/87
f 92/99/88 22/87/78 12/82/73 42/98/87
f 55/62/55 42/98/87 91/97/86 23/63/56
f 92/99/88 42/98/87 55/62/55 24/64/57
f 13/76/67 62/75/66 93/100/89 56/101/90
f 94/102/91 63/77/68 14/78/69 57/103/92
f 46/80/71 64/104/93 93/100/89 62/75/66
f 94/102/91 65/105/94 47/81/72 63/77/68
f 15/68/61 60/67/60 93/100/89 64/104/93
f 94/102/91 61/69/62 16/72/63 65/105/94
f 43/57/52 56/101/90 93/100/89 60/67/60
f 94/102/91 57/103/92 44/61/54 61/69/62
f 21/85/76 82/84/75 95/106/95 91/97/86
f 96/107/96 83/86/77 22/87/78 92/99/88
f 13/76/67 56/101/90 95/106/95 82/84/75
f 96/107/96 57/103/92 14/78/69 83/86/77
f 43/57/52 58/56/51 95/106/95 56/101/90
f 96/107/96 59/58/53 44/61/54 57/103/92
f 23/63/56 91/97/86 95/106/95 58/56/51
f 96/107/96 92/99/88 24/64/57 59/58/53
f 46/80/71 86/93/83 97/108/97 64/104/93
f 98/109/98 87/94/84 47/81/72 65/105/94
f 51/29/24 66/51/46 97/108/97 86/93/83
f 98/109/98 67/53/48 52/30/25 87/94/84
f 48/18/14 84/89/80 97/108/97 66/51/46
f 98/109/98 85/90/81 49/19/15 67/53/48
f 15/68/61 64/104/93 97/108/97 84/89/80
f 98/109/98 65/105/94 16/72/63 85/90/81
